<?xml version="1.0" encoding="UTF-8"?>
<svg xmlns="http://www.w3.org/2000/svg" xmlns:xlink="http://www.w3.org/1999/xlink" width="32" height="32" viewBox="0 0 375 374.999991">
  <defs>
    <clipPath id="3a7dd5085c">
      <path d="M 293.855469 261.582031 L 375 261.582031 L 375 361.265625 L 293.855469 361.265625 Z M 293.855469 261.582031 " clip-rule="nonzero"/>
    </clipPath>
    <clipPath id="a0530e8d97">
      <path d="M 343.699219 261.582031 C 316.171875 261.582031 293.855469 283.898438 293.855469 311.425781 C 293.855469 338.953125 316.171875 361.265625 343.699219 361.265625 C 371.226562 361.265625 393.542969 338.953125 393.542969 311.425781 C 393.542969 283.898438 371.226562 261.582031 343.699219 261.582031 Z M 343.699219 261.582031 " clip-rule="nonzero"/>
    </clipPath>
    <clipPath id="6acf35c91b">
      <path d="M 0 0 L 70.347656 0 L 70.347656 114.402344 L 0 114.402344 Z M 0 0 " clip-rule="nonzero"/>
    </clipPath>
    <clipPath id="b3b96145cb">
      <path d="M -18.742188 -63.78125 C -67.945312 -63.78125 -107.835938 -23.894531 -107.835938 25.308594 C -107.835938 74.511719 -67.945312 114.402344 -18.742188 114.402344 C 30.460938 114.402344 70.347656 74.511719 70.347656 25.308594 C 70.347656 -23.894531 30.460938 -63.78125 -18.742188 -63.78125 Z M -18.742188 -63.78125 " clip-rule="nonzero"/>
    </clipPath>
    <clipPath id="3a1066b653">
      <path d="M 322.648438 290.371094 L 364.753906 290.371094 L 364.753906 332.476562 L 322.648438 332.476562 Z M 322.648438 290.371094 " clip-rule="nonzero"/>
    </clipPath>
    <clipPath id="727e58833c">
      <path d="M 343.699219 290.371094 C 332.070312 290.371094 322.648438 299.796875 322.648438 311.425781 C 322.648438 323.050781 332.070312 332.476562 343.699219 332.476562 C 355.328125 332.476562 364.753906 323.050781 364.753906 311.425781 C 364.753906 299.796875 355.328125 290.371094 343.699219 290.371094 Z M 343.699219 290.371094 " clip-rule="nonzero"/>
    </clipPath>
  </defs>
  <g fill="#ffffff" fill-opacity="1">
    <g transform="translate(7.124665, 312.542009)">
      <g>
        <path d="M 186.5625 -286.625 L 186.5625 -229.296875 L 86.15625 -229.296875 L 86.15625 -172.328125 L 178.921875 -172.328125 L 178.921875 -115 L 86.15625 -115 L 86.15625 0 L 20.84375 0 L 20.84375 -286.625 Z M 186.5625 -286.625 "/>
      </g>
    </g>
  </g>
  <g fill="#ffffff" fill-opacity="1">
    <g transform="translate(130.634227, 312.542009)">
      <g>
        <path d="M 20.84375 -286.625 L 123.328125 -286.625 C 150.890625 -286.625 173.359375 -279.269531 190.734375 -264.5625 C 208.109375 -249.851562 216.796875 -228.832031 216.796875 -201.5 C 216.796875 -180.425781 211.523438 -162.765625 200.984375 -148.515625 C 190.441406 -134.273438 176.140625 -124.257812 158.078125 -118.46875 L 256.75 0 L 173.71875 0 L 86.15625 -113.265625 L 86.15625 0 L 20.84375 0 Z M 86.15625 -159.46875 L 93.796875 -159.46875 C 99.828125 -159.46875 104.925781 -159.582031 109.09375 -159.8125 C 113.257812 -160.039062 118.003906 -160.847656 123.328125 -162.234375 C 128.660156 -163.628906 132.945312 -165.597656 136.1875 -168.140625 C 139.425781 -170.691406 142.203125 -174.398438 144.515625 -179.265625 C 146.835938 -184.128906 148 -190.035156 148 -196.984375 C 148 -203.929688 146.835938 -209.835938 144.515625 -214.703125 C 142.203125 -219.566406 139.425781 -223.269531 136.1875 -225.8125 C 132.945312 -228.363281 128.660156 -230.332031 123.328125 -231.71875 C 118.003906 -233.113281 113.257812 -233.925781 109.09375 -234.15625 C 104.925781 -234.394531 99.828125 -234.515625 93.796875 -234.515625 L 86.15625 -234.515625 Z M 86.15625 -159.46875 "/>
      </g>
    </g>
  </g>
  <g clip-path="url(#3a7dd5085c)">
    <g clip-path="url(#a0530e8d97)">
      <path fill="#000000" d="M 293.855469 261.582031 L 393.542969 261.582031 L 393.542969 361.265625 L 293.855469 361.265625 Z M 293.855469 261.582031 " fill-opacity="1" fill-rule="nonzero"/>
    </g>
  </g>
  <g clip-path="url(#6acf35c91b)">
    <g clip-path="url(#b3b96145cb)">
      <path fill="#000000" d="M -107.835938 -63.78125 L 70.347656 -63.78125 L 70.347656 114.402344 L -107.835938 114.402344 Z M -107.835938 -63.78125 " fill-opacity="1" fill-rule="nonzero"/>
    </g>
  </g>
  <g clip-path="url(#3a1066b653)">
    <g clip-path="url(#727e58833c)">
      <path fill="#ffffff" d="M 322.648438 290.371094 L 364.753906 290.371094 L 364.753906 332.476562 L 322.648438 332.476562 Z M 322.648438 290.371094 " fill-opacity="1" fill-rule="nonzero"/>
    </g>
  </g>
</svg> 